<svg width="763" height="908" viewBox="0 0 763 908" fill="none" xmlns="http://www.w3.org/2000/svg">
<path opacity="0.4" d="M108.942 818.413C253.77 887.462 488.571 887.483 633.398 818.413C778.226 749.343 778.205 637.401 633.398 568.352C488.592 499.303 253.77 499.303 108.942 568.352C-35.8857 637.401 -35.8647 749.364 108.942 818.413Z" fill="#F5F5F5"/>
<path d="M632.895 767.383C659.568 767.383 681.192 757.075 681.192 744.36C681.192 731.644 659.568 721.336 632.895 721.336C606.221 721.336 584.598 731.644 584.598 744.36C584.598 757.075 606.221 767.383 632.895 767.383Z" fill="#EBEBEB"/>
<path d="M222.265 289.086L219.995 275.986L208.31 283.682C207.242 281.579 205.729 279.735 203.875 278.278L209.466 263.14L198.957 260.806L191.265 275.524C188.482 275.993 185.784 276.872 183.258 278.131L179.916 267.029L167.432 276.848L168.251 289.884C165.709 292.733 163.404 295.785 161.358 299.01L151.06 298.484L143.83 314.695L152.678 318.48C151.754 321.833 151.17 325.27 150.934 328.74L139.689 339.085L141.938 352.205L153.645 344.51C154.706 346.61 156.221 348.449 158.079 349.892L152.594 365.052L163.102 367.365L174.115 356.642C176.658 356.242 176.028 351.448 178.802 350.082L182.144 361.141L194.607 351.343L194.291 346.213C196.813 343.395 206.355 337.193 208.415 333.955L211 329.75L218.23 313.539L214.867 307.441L211.126 299.493L222.265 289.086ZM184.119 332.21C174.536 339.737 171.509 341.398 169.891 331.327C168.272 321.255 173.758 305.948 183.342 298.4C192.925 290.852 196.582 290.326 198.306 300.376C200.029 310.427 193.724 324.767 184.119 332.21Z" fill="#E0E0E0"/>
<path d="M199.042 260.806L212.682 268.669L204.99 283.345L191.35 275.482L199.042 260.806Z" fill="#F5F5F5"/>
<path d="M233.635 283.85L221.95 291.546L208.31 283.682L219.995 275.986L233.635 283.85Z" fill="#F5F5F5"/>
<path d="M231.764 321.339L222.916 317.576L209.276 309.712L218.124 313.476L231.764 321.339Z" fill="#E0E0E0"/>
<path d="M152.573 365.052L166.213 372.895L171.804 357.756L158.164 349.893L152.573 365.052Z" fill="#E0E0E0"/>
<path d="M195.658 369.005L182.039 361.142L178.697 350.082L192.337 357.946L195.658 369.005Z" fill="#E0E0E0"/>
<path d="M235.885 296.949L233.636 283.85L221.95 291.545C220.875 289.442 219.354 287.598 217.495 286.141L223.085 271.003L212.682 268.669L204.969 283.387C202.186 283.857 199.487 284.735 196.961 285.994L193.64 274.935L181.156 284.754L181.976 297.79C179.431 300.659 177.125 303.732 175.083 306.978L164.763 306.453L157.533 322.664L166.382 326.448C165.466 329.81 164.882 333.254 164.637 336.73L153.414 346.927L155.663 360.048L167.348 352.352C168.424 354.449 169.945 356.286 171.804 357.735L166.213 372.873L176.722 375.207L184.414 360.489C187.208 360.025 189.915 359.138 192.443 357.861L195.763 368.921L208.247 359.122L207.428 346.086C209.97 343.237 212.275 340.185 214.321 336.961L224.64 337.466L231.87 321.255L222.896 317.491C223.826 314.132 224.418 310.687 224.661 307.209L235.885 296.949ZM197.781 340.157C188.218 347.684 179.055 345.645 177.31 335.594C175.566 325.544 181.934 311.267 191.518 303.74C201.101 296.213 210.244 298.273 211.988 308.324C213.733 318.374 207.365 332.63 197.781 340.157Z" fill="#EBEBEB"/>
<path d="M193.64 274.893L180 267.029L167.516 276.848L181.156 284.712L193.64 274.893Z" fill="#F5F5F5"/>
<path d="M167.517 276.849L168.336 289.885L181.976 297.748L181.157 284.712L167.517 276.849Z" fill="#E0E0E0"/>
<path d="M175.082 306.874L161.442 299.01L151.144 298.506L164.763 306.37L175.082 306.874Z" fill="#F5F5F5"/>
<path d="M151.144 298.506L143.914 314.696L157.533 322.56L164.763 306.37L151.144 298.506Z" fill="#E0E0E0"/>
<path d="M164.636 336.604L151.018 328.74L139.773 339.085L153.392 346.949L164.636 336.604Z" fill="#F5F5F5"/>
<path d="M155.662 360.07L142.022 352.206L139.773 339.086L153.392 346.95L155.662 360.07Z" fill="#E0E0E0"/>
<path d="M212.682 268.669L199.042 260.806L209.466 263.14L223.085 271.003L212.682 268.669Z" fill="#F5F5F5"/>
<path d="M161.19 229.625V210.049L145.617 217.072C144.792 213.751 143.367 210.608 141.413 207.8L151.228 188.014L139.248 181.097L127.017 199.494C123.608 199.196 120.173 199.531 116.886 200.483L115.163 183.473L98.2234 193.271L96.521 212.194C92.8344 215.462 89.4444 219.051 86.3908 222.917L74.159 218.712L62.1793 239.486L71.9732 247.896C70.1635 252.474 68.7571 257.202 67.7698 262.025L52.1963 272.98V292.576L67.7698 285.553C68.5947 288.875 70.0192 292.017 71.9732 294.826L62.2214 314.632L74.201 321.55L86.4329 303.152C89.8416 303.449 93.2758 303.114 96.563 302.164L98.2654 319.174L115.205 309.376L116.928 290.452C122.216 288.523 126.899 285.23 130.505 280.907L139.29 283.998L151.27 263.245L143.914 256.937C145.511 251.677 146.103 246.163 145.659 240.684L161.19 229.625ZM106.693 278.531C93.7047 286.037 85.6763 280.633 85.6763 265.684C85.6763 250.735 96.4159 232.253 109.425 224.746C122.435 217.24 130.295 222.644 130.295 237.719C130.295 252.795 119.703 271.004 106.693 278.531Z" fill="#E0E0E0"/>
<path d="M152.867 188.939L139.248 181.097L127.017 199.494L140.636 207.358L152.867 188.939Z" fill="#F5F5F5"/>
<path d="M174.83 217.913L161.19 210.049L145.616 217.071L159.256 224.935L174.83 217.913Z" fill="#F5F5F5"/>
<path d="M111.842 327.038L98.2229 319.174L96.5205 302.164L110.139 310.028L111.842 327.038Z" fill="#E0E0E0"/>
<path d="M62.1582 314.632L75.7982 322.496L85.6131 302.71L71.9731 294.847L62.1582 314.632Z" fill="#E0E0E0"/>
<path d="M174.83 237.593V218.018L159.256 224.978C158.44 221.654 157.015 218.51 155.053 215.705L164.868 195.92L152.888 188.981L140.656 207.4C137.247 207.092 133.811 207.427 130.526 208.388L128.803 191.336L111.863 201.134L110.14 220.058C106.458 223.331 103.069 226.919 100.009 230.781L87.7776 226.576L75.798 247.349L85.6129 255.76C83.7936 260.335 82.3869 265.063 81.4095 269.889L65.8359 280.844V300.44L81.4095 293.417C82.2252 296.742 83.6505 299.886 85.6129 302.69L75.798 322.475L87.7776 329.393L100.009 310.995C103.418 311.293 106.853 310.958 110.14 310.007L111.863 327.017L128.803 317.219L130.505 298.295C134.192 295.027 137.582 291.439 140.635 287.572L152.867 291.777L164.847 271.025L155.032 262.614C156.85 258.039 158.257 253.31 159.235 248.485L174.83 237.593ZM120.333 286.5C107.323 294.006 96.7729 287.908 96.7729 272.896C96.7729 257.883 107.281 239.612 120.333 232.085C133.384 224.557 143.872 230.676 143.872 245.688C143.872 260.701 133.321 278.867 120.333 286.395V286.5Z" fill="#EBEBEB"/>
<path d="M86.391 222.959L100.01 230.823L87.7782 226.555L74.1592 218.67L86.391 222.959Z" fill="#F0F0F0"/>
<path d="M74.1577 218.691L62.1748 239.472L75.8102 247.341L87.7931 226.56L74.1577 218.691Z" fill="#F5F5F5"/>
<path d="M62.1582 239.443L75.7982 247.307L85.6131 255.759L71.9731 247.917L62.1582 239.443Z" fill="#E0E0E0"/>
<path d="M67.7698 262.047L81.4098 269.911L65.8363 280.865L52.1963 273.001L67.7698 262.047Z" fill="#F5F5F5"/>
<path d="M52.1963 273.001L65.8363 280.865V300.461L52.1963 292.597V273.001Z" fill="#E0E0E0"/>
<path d="M128.803 191.336L115.163 183.473L98.2236 193.271L111.843 201.134L128.803 191.336Z" fill="#F5F5F5"/>
<path d="M303.664 752.833L501.223 638.705C501.659 638.552 502.036 638.267 502.302 637.891C502.569 637.514 502.712 637.064 502.712 636.602C502.712 636.141 502.569 635.691 502.302 635.314C502.036 634.937 501.659 634.653 501.223 634.5L482.96 623.987C481.828 623.417 480.58 623.121 479.313 623.121C478.047 623.121 476.798 623.417 475.667 623.987L278.045 738.01C277.609 738.163 277.232 738.448 276.966 738.824C276.699 739.201 276.556 739.651 276.556 740.113C276.556 740.574 276.699 741.025 276.966 741.401C277.232 741.778 277.609 742.062 278.045 742.215L296.371 752.728C297.494 753.314 298.739 753.629 300.005 753.647C301.272 753.665 302.525 753.387 303.664 752.833Z" fill="#E0E0E0"/>
<path d="M495.801 198.064L317.662 300.964C315.014 302.693 312.81 305.022 311.229 307.762C309.648 310.501 308.734 313.575 308.562 316.734V739.502C308.562 745.305 312.639 747.66 317.662 744.758L495.801 641.858C498.453 640.132 500.659 637.805 502.241 635.064C503.822 632.324 504.734 629.248 504.902 626.088V203.32C504.902 197.517 500.845 195.162 495.801 198.064Z" fill="#455A64"/>
<path d="M317.661 300.965L495.801 198.065C500.298 195.457 504.018 197.076 504.775 201.597C504.355 198.755 503.338 196.034 501.791 193.613C500.244 191.192 498.203 189.126 495.801 187.552L488.403 183.346C485.583 181.915 482.465 181.169 479.302 181.169C476.14 181.169 473.022 181.915 470.202 183.346L292.042 286.163C289.358 287.846 287.146 290.183 285.61 292.955L311.23 307.673C312.765 304.923 314.979 302.614 317.661 300.965Z" fill="#37474F"/>
<path d="M282.899 724.701C283.072 727.86 283.986 730.934 285.567 733.673C287.148 736.413 289.352 738.742 292 740.471L299.419 744.676C301.986 745.961 304.797 746.689 307.665 746.812C310.534 746.935 313.396 746.451 316.064 745.391C311.861 747.031 308.519 744.613 308.519 739.419V316.735C308.624 313.563 309.544 310.471 311.188 307.757L285.569 293.039C283.947 295.733 283.029 298.791 282.899 301.933V724.701Z" fill="#263238"/>
<path d="M322.559 357.294L490.967 260.049C493.994 258.325 496.432 259.734 496.432 263.203V576.111C496.331 578.007 495.783 579.853 494.833 581.497C493.884 583.141 492.559 584.538 490.967 585.572L322.622 682.817C319.595 684.562 317.157 683.154 317.157 679.663V366.756C317.253 364.865 317.792 363.024 318.73 361.38C319.668 359.737 320.98 358.337 322.559 357.294Z" fill="white"/>
<path d="M406.732 265.537C405.802 266.147 405.029 266.968 404.474 267.932C403.919 268.896 403.598 269.977 403.537 271.088C403.537 273.19 404.966 273.968 406.732 272.938C407.665 272.331 408.441 271.512 408.996 270.547C409.551 269.582 409.87 268.499 409.926 267.387C409.926 265.348 408.497 264.528 406.732 265.537Z" fill="#37474F"/>
<path d="M406.732 649.154C403.058 651.559 400.001 654.796 397.811 658.602C395.62 662.408 394.356 666.677 394.122 671.063C394.122 679.116 399.775 682.396 406.732 678.359C410.405 675.954 413.46 672.717 415.651 668.911C417.841 665.105 419.106 660.836 419.342 656.45C419.384 648.397 413.709 645.117 406.732 649.154Z" fill="#37474F"/>
<path d="M376.488 298.085C374.641 299.312 373.108 300.955 372.012 302.884C370.917 304.812 370.29 306.971 370.183 309.187C370.183 313.266 373.041 314.927 376.488 312.887C378.354 311.672 379.908 310.033 381.022 308.104C382.136 306.175 382.778 304.01 382.898 301.785C382.898 297.706 380.04 296.045 376.488 298.085Z" fill="#37474F"/>
<path d="M392.188 296.697C392.188 299.431 394.289 300.461 396.748 299.01L438.782 274.683C440.084 273.869 441.176 272.76 441.968 271.445C442.761 270.129 443.232 268.645 443.343 267.114C443.343 264.401 441.241 263.371 438.782 264.822L396.748 289.149C395.449 289.96 394.359 291.067 393.566 292.378C392.774 293.689 392.302 295.169 392.188 296.697Z" fill="#37474F"/>
<path d="M297.107 370.834C298.599 371.806 299.84 373.116 300.731 374.657C301.622 376.199 302.137 377.929 302.235 379.707C302.235 382.987 299.944 384.312 297.107 382.672C295.621 381.696 294.384 380.385 293.497 378.844C292.61 377.303 292.097 375.574 292 373.799C292 370.54 294.291 369.215 297.107 370.834Z" fill="#37474F"/>
<path d="M297.107 410.322C298.599 411.294 299.84 412.603 300.731 414.145C301.622 415.687 302.137 417.417 302.235 419.195C302.235 422.454 299.944 423.778 297.107 422.159C295.621 421.184 294.384 419.873 293.497 418.331C292.61 416.79 292.097 415.062 292 413.286C292 410.006 294.291 408.682 297.107 410.322Z" fill="#37474F"/>
<path d="M295.51 371.634C297.001 372.606 298.243 373.916 299.134 375.457C300.025 376.999 300.54 378.729 300.638 380.507C300.638 383.766 298.347 385.09 295.51 383.471C294.019 382.499 292.777 381.19 291.886 379.648C290.995 378.106 290.48 376.376 290.382 374.598C290.403 371.318 292.694 370.057 295.51 371.634Z" fill="#455A64"/>
<path d="M295.51 411.099C297.004 412.073 298.247 413.386 299.139 414.931C300.03 416.477 300.543 418.211 300.638 419.993C300.638 423.252 298.347 424.576 295.51 422.936C294.015 421.968 292.771 420.659 291.879 419.117C290.988 417.574 290.475 415.843 290.382 414.063C290.403 410.804 292.694 409.48 295.51 411.099Z" fill="#455A64"/>
<path d="M530.521 273.106C530.521 269.615 528.083 268.207 525.056 269.952L504.901 281.579L356.71 367.197C355.119 368.231 353.794 369.628 352.844 371.272C351.895 372.916 351.347 374.762 351.246 376.658V689.482C351.246 692.972 353.684 694.381 356.71 692.636L504.964 606.997L525.056 595.391C526.648 594.356 527.973 592.96 528.922 591.316C529.872 589.671 530.42 587.826 530.521 585.929V273.106Z" fill="white"/>
<path d="M532.623 273.107C532.755 272.052 532.573 270.982 532.101 270.031C531.628 269.079 530.886 268.287 529.966 267.756C529.047 267.224 527.991 266.975 526.93 267.041C525.87 267.106 524.853 267.483 524.006 268.124L504.775 279.246L355.66 365.453C353.74 366.665 352.144 368.326 351.009 370.293C349.874 372.26 349.234 374.474 349.145 376.744V689.483C349.06 690.533 349.262 691.586 349.728 692.53C350.195 693.474 350.908 694.274 351.793 694.845C352.545 695.282 353.402 695.508 354.273 695.496C355.505 695.458 356.706 695.103 357.762 694.466L506.982 608.26L526.17 597.179C528.079 595.955 529.667 594.291 530.801 592.327C531.934 590.362 532.581 588.154 532.686 585.888L532.623 273.107ZM504.817 604.664L503.094 605.674L355.744 690.787C355.496 690.977 355.209 691.11 354.904 691.175C354.599 691.241 354.282 691.237 353.979 691.165C353.705 690.997 353.432 690.408 353.432 689.441V376.659C353.541 375.133 353.995 373.651 354.759 372.325C355.524 370.999 356.579 369.864 357.846 369.006L505.048 283.851L526.065 271.677C526.313 271.487 526.6 271.354 526.905 271.289C527.211 271.223 527.527 271.226 527.831 271.299C528.104 271.467 528.377 272.056 528.377 273.023V585.93C528.268 587.457 527.814 588.939 527.05 590.265C526.285 591.591 525.23 592.725 523.964 593.584L504.775 604.664H504.817Z" fill="#084892"/>
<path d="M440.884 345.793C459.799 334.901 475.036 343.69 475.036 365.536C475.036 387.382 459.736 413.896 440.884 424.703C422.032 435.51 406.731 426.806 406.731 404.981C406.731 383.156 422.032 356.705 440.884 345.793Z" fill="#084892"/>
<path d="M440.884 362.949C447 359.417 451.959 362.277 451.959 369.257C451.752 373.103 450.64 376.845 448.716 380.181C446.792 383.516 444.108 386.35 440.884 388.454C434.768 391.986 429.808 389.127 429.808 382.146C430.015 378.301 431.127 374.558 433.051 371.223C434.975 367.887 437.659 365.053 440.884 362.949Z" fill="#084892"/>
<path d="M462.468 400.628C462.468 389.022 454.335 384.312 444.267 390.115L437.962 393.753C427.916 399.556 419.762 413.685 419.762 425.292V428.425C425.583 430.338 432.897 429.308 440.779 424.703C449.509 419.315 456.893 412.001 462.363 403.32L462.468 400.628Z" fill="#084892"/>
<path opacity="0.7" d="M440.884 362.949C447 359.417 451.959 362.277 451.959 369.257C451.752 373.103 450.64 376.845 448.716 380.181C446.792 383.516 444.108 386.35 440.884 388.454C434.768 391.986 429.808 389.127 429.808 382.146C430.015 378.301 431.127 374.558 433.051 371.223C434.975 367.887 437.659 365.053 440.884 362.949Z" fill="white"/>
<path opacity="0.7" d="M462.468 400.628C462.468 389.022 454.335 384.312 444.267 390.115L437.962 393.753C427.916 399.556 419.762 413.685 419.762 425.292V428.425C425.583 430.338 432.897 429.308 440.779 424.703C449.509 419.315 456.893 412.001 462.363 403.32L462.468 400.628Z" fill="white"/>
<path d="M374.806 472.747L418.753 447.369C420.854 446.212 422.389 447.138 422.389 449.472V450.922C422.322 452.186 421.958 453.416 421.326 454.512C420.694 455.608 419.813 456.54 418.753 457.23L374.806 482.608C372.81 483.765 371.17 482.819 371.17 480.506V479.055C371.239 477.792 371.603 476.562 372.235 475.466C372.867 474.371 373.748 473.439 374.806 472.747Z" fill="#084892"/>
<path opacity="0.1" d="M374.806 472.747L418.753 447.369C420.854 446.212 422.389 447.138 422.389 449.472V450.922C422.322 452.186 421.958 453.416 421.326 454.512C420.694 455.608 419.813 456.54 418.753 457.23L374.806 482.608C372.81 483.765 371.17 482.819 371.17 480.506V479.055C371.239 477.792 371.603 476.562 372.235 475.466C372.867 474.371 373.748 473.439 374.806 472.747Z" fill="black"/>
<path d="M372.999 503.382L505.952 426.595C506.94 426.006 507.759 426.469 507.759 427.646V443.163C507.722 443.793 507.54 444.406 507.226 444.953C506.913 445.5 506.477 445.967 505.952 446.317L372.999 523.104C371.99 523.693 371.17 523.209 371.17 522.053V506.536C371.207 505.903 371.391 505.288 371.708 504.74C372.026 504.192 372.468 503.727 372.999 503.382Z" fill="#084892"/>
<path opacity="0.2" d="M372.999 503.382L505.952 426.595C506.94 426.006 507.759 426.469 507.759 427.646V443.163C507.722 443.793 507.54 444.406 507.226 444.953C506.913 445.5 506.477 445.967 505.952 446.317L372.999 523.104C371.99 523.693 371.17 523.209 371.17 522.053V506.536C371.207 505.903 371.391 505.288 371.708 504.74C372.026 504.192 372.468 503.727 372.999 503.382Z" fill="white"/>
<path d="M374.806 541.775L418.753 516.397C420.854 515.24 422.389 516.187 422.389 518.499V519.95C422.324 521.214 421.96 522.445 421.328 523.541C420.696 524.638 419.814 525.569 418.753 526.258L374.806 551.636C372.81 552.814 371.17 551.868 371.17 549.534V548.083C371.242 546.821 371.608 545.592 372.239 544.497C372.871 543.402 373.75 542.469 374.806 541.775Z" fill="#084892"/>
<path opacity="0.1" d="M374.806 541.775L418.753 516.397C420.854 515.24 422.389 516.187 422.389 518.499V519.95C422.324 521.214 421.96 522.445 421.328 523.541C420.696 524.638 419.814 525.569 418.753 526.258L374.806 551.636C372.81 552.814 371.17 551.868 371.17 549.534V548.083C371.242 546.821 371.608 545.592 372.239 544.497C372.871 543.402 373.75 542.469 374.806 541.775Z" fill="black"/>
<path d="M372.999 572.41L505.952 495.623C506.94 495.035 507.759 495.518 507.759 496.675V512.192C507.722 512.822 507.54 513.434 507.226 513.981C506.913 514.529 506.477 514.996 505.952 515.346L372.999 592.132C371.99 592.721 371.17 592.259 371.17 591.081V575.564C371.207 574.932 371.391 574.317 371.708 573.769C372.026 573.221 372.468 572.755 372.999 572.41Z" fill="#084892"/>
<path opacity="0.2" d="M372.999 572.41L505.952 495.623C506.94 495.035 507.759 495.518 507.759 496.675V512.192C507.722 512.822 507.54 513.434 507.226 513.981C506.913 514.529 506.477 514.996 505.952 515.346L372.999 592.132C371.99 592.721 371.17 592.259 371.17 591.081V575.564C371.207 574.932 371.391 574.317 371.708 573.769C372.026 573.221 372.468 572.755 372.999 572.41Z" fill="white"/>
<path d="M426.025 581.22L478.567 550.922C480.669 549.744 482.224 550.69 482.224 553.024V569.256C482.155 570.522 481.788 571.753 481.152 572.849C480.517 573.946 479.631 574.876 478.567 575.564L426.025 605.883C423.923 607.04 422.389 606.094 422.389 603.781V587.528C422.462 586.266 422.829 585.038 423.46 583.943C424.091 582.848 424.969 581.915 426.025 581.22Z" fill="#084892"/>
<path opacity="0.1" d="M426.025 581.22L478.567 550.922C480.669 549.744 482.224 550.69 482.224 553.024V569.256C482.155 570.522 481.788 571.753 481.152 572.849C480.517 573.946 479.631 574.876 478.567 575.564L426.025 605.883C423.923 607.04 422.389 606.094 422.389 603.781V587.528C422.462 586.266 422.829 585.038 423.46 583.943C424.091 582.848 424.969 581.915 426.025 581.22Z" fill="black"/>
<path d="M550.445 512.717C550.445 512.717 524.636 477.099 523.123 472.768C521.925 469.572 523.123 464.82 523.501 462.612C523.88 460.405 524.216 455.485 524.594 454.202C525.225 451.805 522.135 452.289 520.391 454.475C518.646 456.662 518.058 461.035 517.154 461.75C516.25 462.465 509.378 452.436 505.784 447.81C502.19 443.184 499.941 440.367 497.735 442.091C496.158 443.332 497.335 446.023 499.941 449.976C501.463 452.104 502.867 454.315 504.145 456.599C504.544 457.461 502.4 457.524 501.244 459.311C500.341 460.699 501.244 462.949 499.983 464.021C499.207 464.612 498.676 465.468 498.49 466.425C498.304 467.383 498.476 468.376 498.975 469.214C501.314 472.89 504.331 476.087 507.865 478.634C511.732 481.304 513.287 482.251 515.578 485.888C517.869 489.525 538.423 526.678 539.81 528.907C541.198 531.136 543.867 535.677 547.923 535.804C551.979 535.93 585.186 507.334 586.888 505.905C592.353 501.342 594.097 500.69 595.022 504.79C595.341 506.248 595.58 507.722 595.737 509.206C596.388 514.42 599.94 533.049 599.94 533.049C599.94 533.049 616.753 541.186 630.562 537.254C644.37 533.322 649.035 527.456 649.035 527.456L642.121 516.186C643.991 511.54 652.629 492.7 655.425 479.517L612.13 472.516C611.247 472.326 609.818 471.969 607.926 471.485C605.551 470.854 599.52 468.773 594.959 472.768C580.079 485.741 550.487 512.717 550.487 512.717" fill="#FFA8A7"/>
<path d="M636.278 731.26L628.523 742.047C632.047 743.693 635.899 744.52 639.788 744.465C646.745 744.717 648.657 742.362 648.909 741.899C650.086 739.376 648.258 734.835 647.753 730.924L636.278 731.26Z" fill="#37474F"/>
<path d="M628.964 736.874C628.964 736.874 619.549 736.264 613.055 735.465C606.56 734.667 601.411 737.82 602.924 740.491C604.438 743.161 608.031 745.39 613.622 747.261C618.393 748.88 624.13 750.036 629.09 751.466C634.05 752.896 637.497 754.767 640.377 753.758C643.592 752.644 644.979 751.361 644.706 749.006C644.004 745.656 643.134 742.344 642.1 739.082L628.964 736.874Z" fill="#37474F"/>
<path d="M648.909 720.432C648.909 720.432 647.732 730.23 647.648 732.333C647.564 734.436 638.086 735.108 636.278 731.261L635.984 719.276L648.909 720.432Z" fill="#F28F8F"/>
<path d="M639.368 726.445L642.752 741.332C642.752 741.332 643.067 743.14 635.333 744.296C627.598 745.453 615.45 740.238 613.37 739.187C611.289 738.136 611.058 736.012 618.666 736.433C626.274 736.853 628.964 736.874 628.964 736.874L626.484 730.293L639.368 726.445Z" fill="#FFA8A7"/>
<path d="M655.299 479.391L660.658 477.898C660.658 477.898 671.86 513.369 673.1 516.796C674.34 520.223 675.748 523.84 673.331 528.066C670.452 533.091 655.299 553.297 655.299 553.297L645.673 543.877L656.602 523.861L646.934 504.307L655.299 479.391Z" fill="#F28F8F"/>
<path d="M600.255 433.323C598.999 430.964 598.361 428.324 598.401 425.65C598.442 422.977 599.159 420.358 600.486 418.037C605.824 408.134 617.72 403.319 631.885 405.148C638.443 406.011 646.177 411.456 650.401 419.593C655.067 428.613 655.508 446.78 656.706 453.655L600.255 433.323Z" fill="#37474F"/>
<path d="M599.877 437.213C599.877 437.213 596.514 443.626 597.103 444.215C597.974 444.724 598.927 445.079 599.919 445.266L599.877 437.213Z" fill="#FFA8A7"/>
<path d="M610.091 416.944C606.434 419.32 600.129 423.694 599.856 438.096C599.562 452.815 601.663 457.672 603.849 459.375C605.32 460.531 613.958 459.942 617.657 459.08C621.356 458.218 632.012 452.941 635.858 444.93C640.376 435.51 639.452 421.801 632.747 417.596C629.335 415.577 625.466 414.459 621.503 414.345C617.541 414.231 613.614 415.125 610.091 416.944Z" fill="#FFA8A7"/>
<path d="M648.91 527.372C655.383 537.465 661.52 546.295 662.865 557.691C665.639 581.64 656.56 609.016 654.605 626.741C658.281 631.782 660.4 637.791 660.7 644.024C660.7 651.362 648.91 720.432 648.91 720.432C648.91 720.432 640.335 723.039 635.984 719.276L627.893 592.216L632.096 576.741L648.91 527.372Z" fill="#084892"/>
<path opacity="0.2" d="M648.91 527.372C655.383 537.465 661.52 546.295 662.865 557.691C665.639 581.64 656.56 609.016 654.605 626.741C658.281 631.782 660.4 637.791 660.7 644.024C660.7 651.362 648.91 720.432 648.91 720.432C648.91 720.432 640.335 723.039 635.984 719.276L627.893 592.216L632.096 576.741L648.91 527.372Z" fill="black"/>
<path d="M627.893 592.216L632.096 576.741C640.144 574.622 647.907 571.536 655.215 567.553C655.215 567.553 650.843 575.522 638.275 579.895L631.781 599.764L631.234 645.286L627.893 592.216Z" fill="#084892"/>
<path opacity="0.3" d="M627.893 592.216L632.096 576.741C640.144 574.622 647.907 571.536 655.215 567.553C655.215 567.553 650.843 575.522 638.275 579.895L631.781 599.764L631.234 645.286L627.893 592.216Z" fill="black"/>
<path d="M648.909 527.372C652.377 533.049 660.658 542.721 658.892 552.035C656.791 563.305 650.696 571.232 632.159 576.741L614.757 639.819C614.757 639.819 623.815 648.229 626.589 656.366C629.363 664.503 639.368 726.487 639.368 726.487C639.368 726.487 636.257 731.555 626.484 730.335C626.484 730.335 592.416 652.539 590.02 647.472C587.112 642.34 586.093 636.351 587.14 630.546C588.212 622.388 599.751 533.091 599.751 533.091L648.909 527.372Z" fill="#084892"/>
<path opacity="0.2" d="M648.909 527.372C652.377 533.049 660.658 542.721 658.892 552.035C656.791 563.305 650.696 571.232 632.159 576.741L614.757 639.819C614.757 639.819 623.815 648.229 626.589 656.366C629.363 664.503 639.368 726.487 639.368 726.487C639.368 726.487 636.257 731.555 626.484 730.335C626.484 730.335 592.416 652.539 590.02 647.472C587.112 642.34 586.093 636.351 587.14 630.546C588.212 622.388 599.751 533.091 599.751 533.091L648.909 527.372Z" fill="black"/>
<path d="M655.299 479.391L612.004 472.389C611.121 472.2 609.692 471.842 607.8 471.359C607.8 471.359 605.951 498.524 594.833 504.748C595.106 506.052 595.337 507.502 595.548 509.164C596.199 514.378 599.751 533.007 599.751 533.007C599.751 533.007 616.564 541.144 630.373 537.212C644.181 533.28 648.846 527.414 648.846 527.414L641.932 516.144C643.865 511.455 652.566 492.616 655.299 479.391Z" fill="#084892"/>
<path opacity="0.7" d="M655.299 479.391L612.004 472.389C611.121 472.2 609.692 471.842 607.8 471.359C607.8 471.359 605.951 498.524 594.833 504.748C595.106 506.052 595.337 507.502 595.548 509.164C596.199 514.378 599.751 533.007 599.751 533.007C599.751 533.007 616.564 541.144 630.373 537.212C644.181 533.28 648.846 527.414 648.846 527.414L641.932 516.144C643.865 511.455 652.566 492.616 655.299 479.391Z" fill="white"/>
<path d="M643.887 511.666C638.137 515.12 632.113 518.095 625.875 520.56C631.537 520.447 637.079 518.914 641.995 516.102L643.887 511.666Z" fill="#084892"/>
<path d="M609.019 417.659C609.019 417.659 606.917 431.326 611.877 439.358C611.877 439.358 613.727 433.912 618.329 434.942C622.932 435.972 623.184 442.049 619.948 445.455C619.125 446.41 618.05 447.115 616.845 447.486C615.641 447.858 614.356 447.883 613.138 447.558C613.138 447.558 612.403 457.44 612.003 465.724C611.604 474.008 609.418 492.07 618.729 499.365C628.039 506.661 651.41 509.227 662.36 493.92C668.455 485.404 660.363 470.35 656.601 453.466C653.133 437.949 651.179 414.946 634.723 411.246C618.266 407.545 609.019 417.659 609.019 417.659Z" fill="#37474F"/>
<path d="M634.123 216.91L630.655 219.013C630.946 217.778 631.108 216.517 631.138 215.249C631.138 208.205 626.199 205.367 620.104 208.941C618.249 210.06 616.594 211.482 615.207 213.146C615.207 203.685 608.566 199.837 600.369 204.568C596.05 207.386 592.456 211.183 589.878 215.651C587.3 220.118 585.811 225.131 585.531 230.282C585.531 230.766 585.531 231.229 585.531 231.691C583.42 231.425 581.283 231.917 579.5 233.079C576.288 235.172 573.615 237.994 571.698 241.315C569.781 244.636 568.673 248.362 568.466 252.191C568.465 253.082 568.556 253.969 568.739 254.841L566.889 255.913C561.866 258.815 557.789 264.471 557.789 268.529C557.789 272.587 561.866 273.554 566.889 270.631L634.144 231.838C639.167 228.937 643.244 223.281 643.244 219.223C643.244 215.165 639.146 213.987 634.123 216.91Z" fill="#EBEBEB"/>
<path d="M678.195 116.327L674.727 118.43C675.018 117.195 675.18 115.934 675.21 114.666C675.21 107.622 670.271 104.784 664.177 108.358C662.322 109.477 660.667 110.899 659.28 112.563C659.28 103.102 652.638 99.2539 644.442 103.985C640.122 106.803 636.528 110.6 633.95 115.067C631.372 119.535 629.883 124.548 629.604 129.699C629.604 130.183 629.604 130.646 629.604 131.108C627.492 130.842 625.355 131.334 623.572 132.496C620.36 134.589 617.687 137.411 615.77 140.732C613.853 144.053 612.746 147.779 612.538 151.608C612.537 152.499 612.628 153.386 612.811 154.258L610.962 155.33C605.939 158.232 601.861 163.888 601.861 167.946C601.861 172.004 605.939 172.971 610.962 170.048L678.216 131.255C683.239 128.354 687.316 122.698 687.316 118.64C687.316 114.582 683.218 113.404 678.195 116.327Z" fill="#EBEBEB"/>
</svg>
