<svg width="24" height="24" viewBox="0 0 24 24" fill="none" xmlns="http://www.w3.org/2000/svg">
<g clip-path="url(#clip0_12_26418)">
<path d="M18.6255 3.31253L16.2235 5.02853L14.1645 4.07103L13.713 1.18103L10.498 1.21753L10.0465 4.08903L7.8965 4.90203L5.549 3.25853L3.291 5.49803L4.971 7.75603L4.158 9.95953L1.25 10.429L1.268 13.572L4.122 14.0955L5.043 16.1905" stroke="#084892" stroke-linecap="round" stroke-linejoin="round"/>
<path d="M14.1562 17.43C12.965 17.9192 11.6414 17.9824 10.4089 17.609C9.17644 17.2355 8.11058 16.4482 7.39124 15.38C6.65562 14.3007 6.29882 13.0079 6.37672 11.704C6.45463 10.4002 6.96284 9.15906 7.82174 8.17503C8.66613 7.20401 9.82037 6.55493 11.0887 6.33786C12.3571 6.12078 13.6615 6.34908 14.7807 6.98403C15.9091 7.63636 16.7874 8.64661 17.2765 9.85467C17.7655 11.0627 17.8374 12.3995 17.4807 13.653" stroke="#084892" stroke-linecap="round" stroke-linejoin="round"/>
<path d="M10.8541 9.36803C11.4069 9.14029 12.0135 9.07631 12.6016 9.18372C13.1897 9.29112 13.7345 9.56538 14.171 9.9738C14.6076 10.3822 14.9175 10.9076 15.0638 11.4872C15.2101 12.0669 15.1866 12.6764 14.9961 13.243M13.5361 15.028C12.9776 15.3301 12.3401 15.4543 11.709 15.3841C11.0779 15.3139 10.4833 15.0527 10.0047 14.6353C9.52618 14.2179 9.18652 13.6643 9.0312 13.0486C8.87589 12.4329 8.91232 11.7845 9.13564 11.19" stroke="#084892" stroke-linecap="round" stroke-linejoin="round"/>
<path d="M10.8546 9.36802L13.2286 11.6075L11.5101 13.4295L9.1361 11.19M14.9966 13.2435L20.4806 18.258C20.5975 18.3534 20.6942 18.4711 20.765 18.6043C20.8358 18.7375 20.8793 18.8835 20.893 19.0337C20.9067 19.1839 20.8902 19.3354 20.8446 19.4792C20.799 19.6229 20.7251 19.7562 20.6274 19.8711C20.5296 19.9859 20.4099 20.0801 20.2752 20.1482C20.1406 20.2162 19.9937 20.2566 19.8432 20.2671C19.6927 20.2777 19.5417 20.258 19.3989 20.2094C19.2561 20.1608 19.1244 20.0842 19.0116 19.984L13.5366 15.028M18.6376 3.30902L20.8246 5.61802L19.1266 7.92752L19.8896 10.095L22.7501 10.613L22.7116 13.828L19.8116 14.2125L19.0966 15.779M5.0331 16.1985L3.3291 18.5755L5.6471 20.804L7.9826 19.0725L10.0851 20L10.6071 22.819L13.7871 22.805L14.1971 19.9265L16.3346 19.083" stroke="#084892" stroke-linecap="round" stroke-linejoin="round"/>
</g>
<defs>
<clipPath id="clip0_12_26418">
<rect width="24" height="24" fill="white"/>
</clipPath>
</defs>
</svg>
