<svg width="771" height="772" viewBox="0 0 771 772" fill="none" xmlns="http://www.w3.org/2000/svg">
<path opacity="0.61" d="M385.5 737.468C586.134 737.468 748.78 643.563 748.78 527.725C748.78 411.887 586.134 317.982 385.5 317.982C184.867 317.982 22.2207 411.887 22.2207 527.725C22.2207 643.563 184.867 737.468 385.5 737.468Z" fill="#F0F0F0"/>
<path opacity="0.61" d="M310.328 686.659C379.514 686.659 435.6 654.28 435.6 614.339C435.6 574.398 379.514 542.02 310.328 542.02C241.142 542.02 185.056 574.398 185.056 614.339C185.056 654.28 241.142 686.659 310.328 686.659Z" fill="#E0E0E0"/>
<path d="M666.576 523.855L651.881 515.374C651.881 515.374 648.288 483.917 650.678 459.554C654.039 425.321 676.152 384.119 702.52 393.803C728.888 403.486 690.431 438.336 681.872 467.372C673.314 496.407 666.576 523.855 666.576 523.855Z" fill="#084892"/>
<path opacity="0.15" d="M666.576 523.855L651.881 515.374C651.881 515.374 648.288 483.917 650.678 459.554C654.039 425.321 676.152 384.119 702.52 393.803C728.888 403.486 690.431 438.336 681.872 467.372C673.314 496.407 666.576 523.855 666.576 523.855Z" fill="black"/>
<path d="M658.851 520.293C659.085 520.281 659.306 520.177 659.464 520.004C659.623 519.831 659.707 519.602 659.699 519.368C657.124 443.301 694.995 405.028 695.365 404.658C695.533 404.491 695.627 404.263 695.627 404.026C695.627 403.789 695.533 403.561 695.365 403.394C695.284 403.311 695.186 403.246 695.079 403.201C694.972 403.156 694.857 403.133 694.741 403.133C694.625 403.133 694.51 403.156 694.402 403.201C694.295 403.246 694.198 403.311 694.116 403.394C693.715 403.764 655.304 442.591 657.91 519.429C657.914 519.548 657.942 519.665 657.991 519.773C658.041 519.881 658.111 519.978 658.199 520.058C658.287 520.139 658.389 520.201 658.501 520.241C658.613 520.281 658.732 520.299 658.851 520.293Z" fill="white"/>
<path d="M675.812 529.144L665.358 523.115C665.358 523.115 663.569 501.527 674.162 475.313C683.414 452.491 706.236 433.54 717.739 437.519C729.243 441.497 728.95 449.654 723.337 458.212C717.724 466.77 683.63 487.14 675.812 529.144Z" fill="#084892"/>
<path d="M670.292 526.862C670.528 526.858 670.753 526.762 670.92 526.595C671.087 526.428 671.182 526.203 671.186 525.967C670.97 477.857 716.136 445.352 716.598 445.028C716.695 444.962 716.777 444.877 716.839 444.778C716.902 444.68 716.944 444.569 716.963 444.454C716.981 444.339 716.976 444.221 716.948 444.107C716.92 443.994 716.869 443.887 716.799 443.794C716.662 443.604 716.457 443.475 716.226 443.434C715.995 443.394 715.758 443.446 715.565 443.578C715.103 443.902 669.197 476.963 669.398 525.967C669.398 526.205 669.492 526.432 669.66 526.6C669.827 526.767 670.055 526.862 670.292 526.862Z" fill="white"/>
<path d="M122.836 504.966L136.405 495.806C136.405 495.806 142.373 460.34 136.822 429.053C129.019 385.168 98.6879 370.58 87.8939 375.206C77.0999 379.832 74.7869 392.893 94.9408 417.935C106.891 432.661 122.419 464.103 122.836 504.966Z" fill="#084892"/>
<g opacity="0.15">
<path d="M122.836 504.966L136.405 495.806C136.405 495.806 142.373 460.34 136.822 429.053C129.019 385.168 98.6879 370.58 87.8939 375.206C77.0999 379.832 74.7869 392.893 94.9408 417.935C106.891 432.661 122.419 464.103 122.836 504.966Z" fill="black"/>
</g>
<path d="M127.493 487.387H127.354C127.215 487.378 127.08 487.34 126.957 487.276C126.834 487.211 126.726 487.121 126.64 487.012C126.555 486.903 126.493 486.777 126.459 486.642C126.425 486.508 126.42 486.367 126.444 486.23C131.348 444.92 113.908 400.079 94.9258 382.238C94.7431 382.053 94.6406 381.804 94.6406 381.544C94.6406 381.284 94.7431 381.035 94.9258 380.85C95.0162 380.758 95.1242 380.685 95.2433 380.634C95.3625 380.584 95.4904 380.559 95.6197 380.559C95.7489 380.559 95.8769 380.584 95.996 380.634C96.1152 380.685 96.2231 380.758 96.3136 380.85C115.65 399.015 133.414 444.596 128.449 486.508C128.42 486.744 128.308 486.962 128.132 487.123C127.957 487.284 127.731 487.378 127.493 487.387Z" fill="white"/>
<path d="M87.3083 528.928C85.1495 530.223 78.8581 525.551 77.1157 524.426C74.1294 522.476 71.6969 519.788 70.0533 516.623C68.2095 513.034 67.5253 508.96 68.095 504.966C68.4108 502.881 68.8693 500.82 69.4674 498.798C70.0071 496.778 70.5468 494.757 71.0094 492.722C71.6932 490.742 71.9558 488.641 71.7804 486.554C71.179 482.437 67.4628 479.615 64.0704 477.194C60.3387 474.496 56.3604 470.934 56.3604 465.968C56.5506 462.067 58.0437 458.343 60.6009 455.39C62.9139 452.306 65.6895 449.623 67.7712 446.4C69.399 444.167 70.2298 441.452 70.1304 438.69C69.8623 436.988 69.254 435.357 68.3417 433.895C66.5221 430.687 64.1629 427.727 62.883 424.319C61.6032 420.911 61.6957 416.532 64.425 413.988C66.5992 411.906 69.9145 411.567 72.9214 411.705C75.7549 411.988 78.4919 412.888 80.9398 414.342C88.912 418.583 93.5997 427.835 102.034 431.057C105.288 432.291 108.835 432.507 112.212 433.34C115.589 434.172 119.073 435.822 120.693 438.891C123.885 444.982 118.318 452.661 120.6 459.122C122.636 464.858 128.31 466.955 131.517 472.09C132.819 474.37 133.359 477.007 133.059 479.615C132.879 484.019 131.891 488.351 130.145 492.398C128.137 496.595 125.871 500.664 123.36 504.58C123.36 504.58 87.6321 528.728 87.3083 528.928Z" fill="#084892"/>
<path d="M108.156 516.145C108.026 516.143 107.898 516.115 107.779 516.064C107.66 516.013 107.553 515.938 107.462 515.845C107.372 515.752 107.301 515.642 107.253 515.522C107.206 515.401 107.182 515.272 107.184 515.143C108.048 476.099 88.8345 433.417 75.234 421.081C75.0407 420.906 74.9242 420.663 74.9097 420.403C74.8953 420.143 74.9841 419.888 75.1569 419.693C75.2474 419.601 75.3553 419.527 75.4745 419.477C75.5936 419.427 75.7216 419.401 75.8508 419.401C75.9801 419.401 76.108 419.427 76.2272 419.477C76.3463 419.527 76.4543 419.601 76.5447 419.693C90.4227 432.183 110.022 475.606 109.143 515.189C109.141 515.317 109.113 515.443 109.063 515.56C109.012 515.677 108.939 515.783 108.847 515.871C108.756 515.96 108.647 516.03 108.529 516.077C108.41 516.124 108.283 516.147 108.156 516.145Z" fill="white"/>
<path d="M100.955 468.574C100.864 468.597 100.769 468.597 100.678 468.574C88.064 464.935 72.4281 464.565 72.2739 464.55C72.145 464.548 72.0178 464.52 71.8997 464.468C71.7815 464.417 71.6749 464.342 71.5859 464.249C71.4969 464.156 71.4274 464.045 71.3814 463.925C71.3353 463.805 71.3138 463.676 71.3179 463.547C71.3155 463.417 71.3401 463.288 71.3902 463.168C71.4404 463.048 71.5149 462.939 71.6091 462.849C71.7033 462.759 71.8152 462.69 71.9376 462.646C72.06 462.601 72.1903 462.583 72.3202 462.591C72.4744 462.591 88.357 462.977 101.217 466.678C101.466 466.753 101.675 466.923 101.799 467.151C101.923 467.379 101.952 467.646 101.88 467.896C101.82 468.094 101.698 468.267 101.531 468.389C101.364 468.512 101.162 468.577 100.955 468.574Z" fill="white"/>
<path d="M464.389 478.119L458.544 474.742C457.571 474.11 456.76 473.257 456.179 472.252C455.597 471.247 455.261 470.119 455.198 468.96V226.064C455.262 224.906 455.596 223.78 456.175 222.776C456.753 221.771 457.56 220.917 458.529 220.281L620.979 126.497C622.013 125.972 623.157 125.699 624.317 125.699C625.477 125.699 626.621 125.972 627.656 126.497L633.5 129.874C634.473 130.506 635.284 131.359 635.866 132.364C636.447 133.369 636.783 134.497 636.846 135.656V378.552C636.782 379.709 636.448 380.836 635.869 381.84C635.291 382.844 634.484 383.699 633.515 384.335L471.065 478.134C470.031 478.66 468.886 478.933 467.725 478.93C466.564 478.927 465.421 478.649 464.389 478.119Z" fill="#455A64"/>
<path d="M636.846 135.117C636.615 133.389 635.212 132.757 633.531 133.729L471.066 227.529C470.083 228.145 469.272 228.999 468.706 230.011L456.17 222.779C456.731 221.759 457.543 220.899 458.529 220.281L620.979 126.497C622.014 125.972 623.157 125.699 624.317 125.699C625.477 125.699 626.621 125.972 627.656 126.497L633.5 129.874C634.403 130.455 635.169 131.224 635.746 132.129C636.324 133.034 636.699 134.053 636.846 135.117Z" fill="#455A64"/>
<path d="M470.495 478.397C469.508 478.797 468.447 478.98 467.383 478.935C466.319 478.89 465.277 478.617 464.327 478.135L458.467 474.742C457.498 474.106 456.692 473.252 456.113 472.248C455.535 471.243 455.2 470.117 455.137 468.96V226.064C455.176 224.904 455.511 223.774 456.108 222.779L468.645 230.011C468.035 231.007 467.695 232.144 467.658 233.311V476.207C467.719 478.119 468.922 478.998 470.495 478.397Z" fill="#263238"/>
<path d="M467.719 233.342V476.207C467.719 478.335 469.261 479.198 471.065 478.134L633.515 384.334C634.484 383.699 635.291 382.844 635.869 381.84C636.448 380.835 636.782 379.709 636.846 378.552V135.656C636.846 133.528 635.304 132.664 633.515 133.728L471.065 227.528C470.088 228.164 469.274 229.022 468.693 230.032C468.111 231.043 467.777 232.177 467.719 233.342Z" fill="#37474F"/>
<path d="M429.786 325.862C427.689 324.613 417.959 319.077 417.45 318.784C417.054 318.547 416.715 318.225 416.46 317.84C416.205 317.455 416.039 317.018 415.976 316.561C415.912 316.103 415.952 315.637 416.092 315.198C416.233 314.758 416.47 314.355 416.787 314.019L455.198 272.817L467.719 280.003L429.324 321.236C429.022 321.557 428.793 321.939 428.651 322.356C428.509 322.773 428.459 323.216 428.503 323.654C428.547 324.092 428.684 324.516 428.905 324.897C429.127 325.278 429.427 325.607 429.786 325.862Z" fill="#455A64"/>
<path d="M467.719 280.049L429.323 321.236C428.897 321.691 428.619 322.265 428.525 322.882C428.432 323.498 428.527 324.129 428.8 324.69C429.072 325.251 429.508 325.717 430.05 326.025C430.592 326.333 431.215 326.47 431.837 326.417L467.719 323.456V280.049Z" fill="#37474F"/>
<path d="M552.283 205.894C571.218 194.962 586.561 203.828 586.561 225.694C586.561 247.559 571.218 274.128 552.283 285.061C533.347 295.993 518.004 287.127 518.004 265.277C518.004 243.427 533.347 216.827 552.283 205.894Z" fill="#084892"/>
<path d="M552.036 223.103C558.204 219.556 563.154 222.425 563.154 229.518C562.944 233.374 561.828 237.126 559.896 240.469C557.964 243.813 555.271 246.654 552.036 248.762C545.868 252.309 540.903 249.44 540.903 242.347C541.115 238.49 542.233 234.737 544.168 231.393C546.102 228.05 548.798 225.209 552.036 223.103Z" fill="white"/>
<path d="M573.963 260.913C573.963 249.271 565.775 244.537 555.69 250.366L549.384 254.005C539.299 259.834 531.111 274.051 531.111 285.662V288.854C533.015 289.463 535.002 289.77 537.001 289.764C542.411 289.58 547.679 287.985 552.283 285.138C561.048 279.739 568.464 272.407 573.963 263.704V260.913Z" fill="white"/>
<path d="M530.571 393.294L573.994 368.221C575.844 367.157 577.34 368.02 577.34 370.148V384.134C577.277 385.293 576.941 386.421 576.36 387.426C575.778 388.431 574.968 389.284 573.994 389.917L530.571 414.99C528.721 416.053 527.225 415.19 527.225 413.062V399.076C527.288 397.917 527.624 396.789 528.205 395.784C528.787 394.779 529.597 393.926 530.571 393.294Z" fill="#084892"/>
<path d="M509.307 362.053L595.212 312.431C597.417 311.151 599.221 312.184 599.221 314.744V319.94C599.146 321.331 598.743 322.684 598.047 323.89C597.35 325.095 596.379 326.12 595.212 326.879L509.261 376.501C507.056 377.781 505.267 376.748 505.267 374.188V369.038C505.337 367.636 505.741 366.272 506.443 365.057C507.146 363.842 508.127 362.812 509.307 362.053Z" fill="#FAFAFA"/>
<path d="M519.361 326.14C520.533 325.461 521.443 325.353 522.09 325.831C522.738 326.309 523.062 327.373 523.062 329.008C523.095 330.5 522.761 331.977 522.09 333.31C521.484 334.515 520.535 335.513 519.361 336.178L517.048 337.519V342.5C517.044 342.672 517.001 342.84 516.925 342.994C516.87 343.133 516.773 343.252 516.647 343.333L515.475 344.011C515.435 344.041 515.386 344.058 515.336 344.058C515.286 344.058 515.238 344.041 515.198 344.011C515.114 343.907 515.076 343.774 515.09 343.641V329.224C515.088 329.053 515.125 328.884 515.198 328.73C515.256 328.593 515.352 328.475 515.475 328.391L519.361 326.14ZM517.048 334.728L519.284 333.433C519.824 333.128 520.28 332.694 520.61 332.169C520.961 331.549 521.132 330.844 521.103 330.133C521.103 329.301 520.934 328.823 520.61 328.684C520.381 328.628 520.143 328.626 519.913 328.676C519.683 328.727 519.468 328.83 519.284 328.977L517.048 330.272V334.728Z" fill="#FAFAFA"/>
<path d="M529.522 320.264C529.677 320.172 529.8 320.172 529.877 320.264C529.976 320.403 530.044 320.56 530.078 320.727L533.64 332.785C533.64 332.785 533.64 332.878 533.64 332.924C533.637 333.096 533.595 333.265 533.516 333.417C533.462 333.557 533.365 333.676 533.239 333.757L532.19 334.358C532.005 334.466 531.866 334.481 531.789 334.358C531.714 334.281 531.661 334.185 531.635 334.081L531.003 331.968L526.377 334.62L525.76 337.458C525.716 337.611 525.659 337.761 525.59 337.905C525.514 338.093 525.371 338.246 525.189 338.336L524.141 338.938C524.102 338.97 524.053 338.988 524.002 338.988C523.951 338.988 523.902 338.97 523.863 338.938C523.783 338.838 523.744 338.711 523.755 338.583C523.747 338.527 523.747 338.47 523.755 338.414L527.302 322.253C527.345 322.016 527.412 321.783 527.502 321.56C527.578 321.397 527.702 321.263 527.857 321.174L529.522 320.264ZM530.324 329.609L528.782 324.165L527.24 331.444L530.324 329.609Z" fill="#FAFAFA"/>
<path d="M539.037 314.544C539.553 314.218 540.14 314.022 540.749 313.973C541.179 313.934 541.61 314.032 541.982 314.251C542.32 314.47 542.584 314.788 542.738 315.16C542.906 315.54 543 315.948 543.015 316.363C543.026 316.535 542.988 316.705 542.907 316.857C542.853 316.996 542.756 317.115 542.63 317.196L541.612 317.782C541.442 317.874 541.319 317.89 541.242 317.782C541.147 317.719 541.067 317.635 541.011 317.535C540.949 317.396 540.86 317.272 540.748 317.168C540.637 317.065 540.506 316.985 540.363 316.934C539.894 316.867 539.417 316.989 539.037 317.273C538.787 317.434 538.55 317.615 538.328 317.813C538.099 318.023 537.897 318.262 537.726 318.522C537.562 318.773 537.428 319.042 537.325 319.324C537.234 319.592 537.188 319.873 537.187 320.157C537.168 320.416 537.216 320.676 537.325 320.912C537.373 320.995 537.44 321.065 537.52 321.116C537.601 321.167 537.693 321.198 537.788 321.205C538.074 321.255 538.366 321.255 538.651 321.205L539.993 320.912C540.493 320.764 541.014 320.701 541.535 320.727C541.907 320.726 542.269 320.845 542.568 321.066C542.85 321.304 543.055 321.621 543.154 321.976C543.305 322.476 543.373 322.997 543.355 323.518C543.353 324.207 543.255 324.892 543.062 325.554C542.873 326.233 542.599 326.886 542.244 327.496C541.871 328.122 541.426 328.701 540.918 329.224C540.4 329.761 539.808 330.223 539.16 330.596C538.685 330.885 538.164 331.089 537.618 331.197C537.175 331.283 536.716 331.245 536.292 331.089C535.907 330.91 535.588 330.613 535.382 330.241C535.13 329.766 534.993 329.237 534.981 328.699C534.98 328.524 535.017 328.35 535.089 328.19C535.158 328.059 535.259 327.948 535.382 327.867L536.4 327.281C536.554 327.188 536.678 327.157 536.77 327.204C536.863 327.25 536.924 327.327 536.986 327.466C537.05 327.624 537.133 327.774 537.233 327.913C537.329 328.047 537.463 328.149 537.618 328.206C537.821 328.253 538.032 328.253 538.235 328.206C538.562 328.129 538.875 327.998 539.16 327.82C539.459 327.65 539.743 327.454 540.008 327.234C540.527 326.824 540.939 326.295 541.211 325.692C541.335 325.383 541.397 325.054 541.396 324.721C541.411 324.6 541.4 324.478 541.366 324.361C541.331 324.244 541.274 324.136 541.196 324.042C541.112 323.969 541.014 323.914 540.908 323.882C540.801 323.85 540.689 323.842 540.579 323.857C540.229 323.872 539.882 323.929 539.546 324.027C539.145 324.12 538.682 324.227 538.143 324.32C537.73 324.423 537.302 324.455 536.878 324.412C536.545 324.391 536.229 324.255 535.984 324.027C535.717 323.766 535.53 323.434 535.444 323.071C535.32 322.535 535.263 321.986 535.274 321.436C535.274 320.758 535.372 320.082 535.567 319.432C535.752 318.763 536.021 318.12 536.369 317.52C536.703 316.924 537.107 316.37 537.572 315.87C537.995 315.361 538.488 314.914 539.037 314.544Z" fill="#FAFAFA"/>
<path d="M549.168 308.715C549.68 308.379 550.269 308.178 550.879 308.129C551.309 308.093 551.74 308.189 552.113 308.407C552.442 308.632 552.699 308.948 552.853 309.316C553.021 309.696 553.116 310.104 553.13 310.519C553.149 310.691 553.111 310.864 553.023 311.013C552.968 311.152 552.871 311.271 552.745 311.352L551.727 311.938C551.573 312.03 551.45 312.061 551.357 311.938C551.259 311.876 551.183 311.784 551.141 311.676C551 311.405 550.764 311.196 550.478 311.09C550.248 311.056 550.014 311.069 549.789 311.127C549.563 311.185 549.352 311.288 549.168 311.429C548.91 311.586 548.667 311.767 548.443 311.969C548.219 312.18 548.022 312.418 547.857 312.678C547.687 312.926 547.552 313.195 547.456 313.48C547.36 313.747 547.308 314.028 547.302 314.313C547.283 314.572 547.331 314.832 547.44 315.068C547.488 315.151 547.555 315.221 547.635 315.272C547.716 315.323 547.808 315.354 547.903 315.361C548.189 315.411 548.481 315.411 548.767 315.361L550.108 315.068C550.61 314.928 551.13 314.866 551.65 314.883C552.022 314.88 552.385 314.999 552.683 315.222C552.965 315.463 553.174 315.778 553.285 316.132C553.421 316.634 553.483 317.154 553.47 317.674C553.469 318.363 553.37 319.048 553.177 319.71C552.988 320.389 552.714 321.042 552.359 321.652C551.988 322.284 551.543 322.869 551.033 323.395C550.513 323.92 549.927 324.376 549.291 324.752C548.815 325.04 548.294 325.243 547.749 325.353C547.31 325.437 546.857 325.4 546.438 325.245C546.045 325.072 545.72 324.774 545.513 324.397C545.26 323.923 545.127 323.393 545.127 322.855C545.109 322.683 545.147 322.51 545.235 322.362C545.29 322.222 545.387 322.103 545.513 322.023L546.531 321.437C546.685 321.344 546.824 321.313 546.901 321.36C546.954 321.384 547.002 321.42 547.039 321.466C547.077 321.511 547.103 321.564 547.117 321.622C547.186 321.777 547.269 321.927 547.363 322.069C547.465 322.204 547.604 322.306 547.764 322.362C547.967 322.409 548.178 322.409 548.381 322.362C548.708 322.285 549.021 322.154 549.306 321.976C549.598 321.802 549.876 321.606 550.139 321.39C550.41 321.179 550.649 320.93 550.848 320.65C551.048 320.384 551.214 320.094 551.342 319.787C551.465 319.478 551.528 319.148 551.527 318.815C551.541 318.694 551.531 318.572 551.497 318.455C551.462 318.339 551.404 318.23 551.326 318.137C551.243 318.063 551.145 318.009 551.038 317.977C550.932 317.945 550.82 317.936 550.71 317.952C550.365 317.973 550.024 318.03 549.692 318.121C549.291 318.214 548.813 318.322 548.289 318.414C547.87 318.518 547.437 318.549 547.009 318.507C546.674 318.489 546.357 318.352 546.114 318.121C545.853 317.859 545.671 317.527 545.59 317.165C545.453 316.637 545.391 316.092 545.405 315.546C545.411 314.863 545.509 314.183 545.698 313.526C545.889 312.859 546.158 312.217 546.5 311.614C546.833 311.014 547.243 310.46 547.718 309.964C548.133 309.475 548.622 309.054 549.168 308.715Z" fill="#FAFAFA"/>
<path d="M560.409 310.642L559.16 318.028C559.123 318.251 559.061 318.468 558.975 318.676C558.915 318.842 558.801 318.983 558.651 319.077L557.479 319.755C557.325 319.848 557.217 319.848 557.14 319.755C557.037 319.629 556.977 319.472 556.971 319.308L555.12 306.278C555.12 306.278 555.12 306.155 555.12 306.109C555.125 305.937 555.167 305.769 555.243 305.615C555.302 305.478 555.398 305.36 555.521 305.276L556.585 304.659C556.674 304.623 556.774 304.623 556.863 304.659C556.955 304.659 557.017 304.783 557.048 305.029L558.266 313.803L559.33 307.219C559.357 307.055 559.404 306.894 559.469 306.741C559.53 306.546 559.662 306.381 559.839 306.278L561.026 305.584C561.196 305.492 561.319 305.507 561.396 305.584C561.463 305.682 561.51 305.792 561.535 305.908L562.614 311.259L563.832 301.082C563.847 300.882 563.905 300.687 564.002 300.511C564.074 300.396 564.168 300.296 564.28 300.218L565.344 299.601C565.384 299.571 565.432 299.555 565.482 299.555C565.532 299.555 565.581 299.571 565.621 299.601C565.665 299.652 565.699 299.711 565.72 299.774C565.741 299.838 565.749 299.905 565.745 299.972C565.751 300.033 565.751 300.095 565.745 300.157L563.894 315.314C563.863 315.536 563.806 315.754 563.724 315.962C563.654 316.127 563.536 316.266 563.385 316.363L562.198 317.041C562.059 317.119 561.951 317.119 561.874 317.041C561.796 316.9 561.734 316.75 561.689 316.594L560.409 310.642Z" fill="#FAFAFA"/>
<path d="M567.626 304.104C567.66 303.249 567.763 302.399 567.934 301.56C568.11 300.741 568.379 299.944 568.736 299.185C569.076 298.448 569.511 297.758 570.031 297.135C570.558 296.516 571.19 295.994 571.897 295.593C572.44 295.224 573.076 295.016 573.732 294.991C574.222 294.997 574.691 295.19 575.043 295.531C575.416 295.951 575.686 296.453 575.829 296.996C576.028 297.704 576.137 298.435 576.153 299.17C576.153 299.448 576.153 299.756 576.153 300.095C576.153 300.434 576.153 300.789 576.153 301.159C576.153 301.529 576.153 301.884 576.153 302.223C576.153 302.562 576.153 302.886 576.153 303.179C576.119 304.029 576.016 304.875 575.844 305.708C575.666 306.525 575.403 307.321 575.058 308.083C574.707 308.818 574.267 309.507 573.747 310.134C573.22 310.747 572.595 311.268 571.897 311.676C571.341 312.042 570.696 312.249 570.031 312.277C569.791 312.282 569.552 312.238 569.33 312.148C569.107 312.058 568.905 311.923 568.736 311.753C568.334 311.321 568.056 310.788 567.934 310.211C567.75 309.5 567.647 308.771 567.626 308.037C567.626 307.759 567.626 307.451 567.626 307.111C567.626 306.772 567.626 306.417 567.626 306.047C567.626 305.677 567.626 305.338 567.626 304.983C567.626 304.629 567.61 304.382 567.626 304.104ZM574.194 300.419C574.229 300.042 574.186 299.662 574.07 299.301C573.953 298.941 573.765 298.608 573.516 298.322C573.115 297.967 572.56 297.983 571.897 298.322C571.177 298.745 570.606 299.381 570.262 300.142C569.825 301.04 569.593 302.025 569.584 303.025C569.584 303.596 569.584 304.228 569.584 304.922C569.584 305.616 569.584 306.232 569.584 306.788C569.55 307.165 569.592 307.545 569.709 307.905C569.825 308.266 570.014 308.599 570.262 308.885C570.663 309.224 571.218 309.193 571.897 308.808C572.605 308.382 573.169 307.753 573.516 307.003C573.953 306.11 574.185 305.13 574.194 304.135C574.194 303.549 574.194 302.917 574.194 302.223C574.194 301.529 574.21 300.974 574.194 300.419Z" fill="#FAFAFA"/>
<path d="M582.876 289.44C584.094 288.746 585.004 288.638 585.636 289.147C586.011 289.56 586.289 290.051 586.452 290.584C586.615 291.117 586.657 291.68 586.577 292.231C586.589 293.279 586.428 294.321 586.099 295.315C585.785 296.241 585.299 297.1 584.665 297.844L586.669 302.208C586.676 302.28 586.676 302.352 586.669 302.424C586.67 302.563 586.638 302.7 586.577 302.825C586.534 302.937 586.459 303.033 586.361 303.102L585.127 303.812C584.927 303.919 584.788 303.935 584.696 303.812C584.614 303.731 584.546 303.637 584.495 303.534L582.598 299.417L580.671 300.527V305.739C580.672 305.91 580.635 306.078 580.563 306.232C580.499 306.367 580.404 306.483 580.285 306.572L579.113 307.25C579.075 307.283 579.025 307.301 578.975 307.301C578.924 307.301 578.875 307.283 578.836 307.25C578.792 307.203 578.758 307.147 578.737 307.086C578.715 307.025 578.707 306.96 578.713 306.896V292.478C578.717 292.306 578.759 292.138 578.836 291.984C578.89 291.845 578.987 291.726 579.113 291.645L582.876 289.44ZM580.702 297.736L582.876 296.564C583.407 296.268 583.861 295.85 584.202 295.346C584.559 294.752 584.731 294.065 584.696 293.372C584.696 292.54 584.526 292.077 584.202 291.984C583.733 291.921 583.257 292.042 582.876 292.324L580.779 293.526L580.702 297.736Z" fill="#FAFAFA"/>
<path d="M593.207 283.503C593.767 283.138 594.407 282.916 595.073 282.856C595.555 282.838 596.026 283.01 596.384 283.334C596.792 283.763 597.075 284.297 597.201 284.876C597.408 285.64 597.522 286.427 597.54 287.22C597.54 288.299 597.54 289.409 597.54 290.535C597.509 291.453 597.395 292.366 597.201 293.264C597.025 294.099 596.756 294.911 596.399 295.685C596.055 296.397 595.619 297.06 595.104 297.659C594.589 298.272 593.973 298.793 593.284 299.201L589.63 301.19C589.591 301.223 589.542 301.241 589.491 301.241C589.44 301.241 589.391 301.223 589.352 301.19C589.307 301.143 589.273 301.088 589.251 301.026C589.23 300.965 589.222 300.9 589.229 300.835V286.418C589.233 286.246 589.275 286.078 589.352 285.924C589.407 285.785 589.504 285.666 589.63 285.585L593.207 283.503ZM595.582 288.299C595.575 287.881 595.513 287.467 595.397 287.065C595.325 286.762 595.17 286.484 594.95 286.264C594.853 286.167 594.737 286.091 594.61 286.04C594.483 285.99 594.346 285.966 594.209 285.971C593.823 285.996 593.451 286.124 593.13 286.341L591.187 287.451V297.505L593.207 296.348C593.598 296.121 593.947 295.829 594.24 295.485C594.527 295.147 594.771 294.774 594.965 294.374C595.157 293.95 595.302 293.505 595.397 293.048C595.504 292.572 595.566 292.087 595.582 291.599C595.628 290.473 595.628 289.378 595.582 288.299Z" fill="#FAFAFA"/>
<path d="M381.46 59.6975C384.122 60.2897 386.686 61.2553 389.078 62.5656C391.367 63.7965 393.419 65.4257 395.138 67.3766C396.782 69.2533 398.002 71.4623 398.715 73.853C399.443 76.4122 399.496 79.1161 398.869 81.7018C398.456 83.7519 397.644 85.7009 396.479 87.438C395.416 88.9236 394.149 90.2524 392.717 91.3856C391.31 92.4781 389.808 93.4431 388.229 94.2691L383.789 96.6284C382.451 97.3261 381.181 98.1469 379.995 99.0801C378.923 99.9029 378.1 101.008 377.621 102.272C377.386 102.849 376.996 103.351 376.495 103.722C376.258 103.906 375.982 104.034 375.688 104.095C375.394 104.156 375.09 104.15 374.799 104.076L368.261 102.627C367.946 102.561 367.647 102.433 367.382 102.25C367.118 102.067 366.892 101.834 366.719 101.563C366.534 101.311 366.411 101.019 366.36 100.711C366.309 100.403 366.332 100.087 366.426 99.7895C366.952 97.7646 367.88 95.8663 369.155 94.2074C370.318 92.74 371.666 91.4288 373.164 90.3062C374.624 89.2374 376.172 88.2935 377.79 87.4843C379.332 86.6979 380.874 85.9423 382.216 85.1867C383.464 84.516 384.637 83.7148 385.716 82.7966C386.663 82.004 387.319 80.9191 387.582 79.7126C387.827 78.665 387.815 77.5735 387.546 76.5316C387.278 75.4896 386.761 74.5283 386.04 73.7297C384.237 71.761 381.827 70.4527 379.193 70.0135C374.321 68.9341 370.209 70.5737 366.857 74.9324C366.534 75.4082 366.126 75.821 365.655 76.1506C365.122 76.4145 364.508 76.4587 363.943 76.274L356.989 74.732C356.492 74.6361 356.055 74.3478 355.77 73.9301C355.619 73.7069 355.517 73.4537 355.471 73.1877C355.426 72.9216 355.439 72.6489 355.508 72.3881C356.099 70.2454 357.2 68.2774 358.716 66.6519C360.425 64.7667 362.456 63.2004 364.714 62.0259C367.183 60.7343 369.843 59.8492 372.594 59.4045C375.54 58.9252 378.552 59.0247 381.46 59.6975ZM374.074 109.319C374.686 109.463 375.217 109.84 375.554 110.37C375.891 110.9 376.007 111.541 375.878 112.156L374.213 119.712C374.156 120.028 374.034 120.329 373.853 120.595C373.672 120.861 373.438 121.085 373.164 121.254C372.906 121.432 372.614 121.554 372.306 121.613C371.998 121.671 371.681 121.664 371.375 121.593L363.912 119.882C363.595 119.828 363.293 119.707 363.027 119.526C362.76 119.345 362.537 119.109 362.37 118.833C362.197 118.573 362.079 118.28 362.024 117.972C361.968 117.665 361.976 117.349 362.046 117.044L363.727 109.489C363.871 108.876 364.247 108.344 364.777 108.004C365.307 107.664 365.948 107.544 366.564 107.669L374.074 109.319Z" fill="#084892"/>
<path d="M389.695 132.033C391.551 131.735 393.441 131.698 395.307 131.925C397.091 132.137 398.823 132.658 400.427 133.467C401.954 134.259 403.299 135.362 404.374 136.705C405.341 138.019 406.022 139.521 406.373 141.115C406.723 142.709 406.736 144.358 406.41 145.957C406.116 147.186 405.643 148.365 405.007 149.457C404.393 150.519 403.681 151.521 402.879 152.449C402.092 153.374 401.337 154.253 400.643 155.101C399.963 155.891 399.359 156.743 398.839 157.645C398.35 158.436 398.103 159.353 398.129 160.282C398.116 160.716 397.994 161.14 397.775 161.516C397.663 161.688 397.516 161.836 397.343 161.947C397.17 162.059 396.976 162.133 396.772 162.163L392.146 162.903C391.93 162.943 391.708 162.938 391.494 162.891C391.279 162.843 391.076 162.753 390.897 162.626C390.715 162.511 390.563 162.355 390.453 162.17C390.343 161.985 390.279 161.777 390.265 161.562C390.071 160.127 390.176 158.667 390.573 157.275C390.936 156.042 391.454 154.861 392.115 153.759C392.764 152.702 393.507 151.706 394.336 150.783C395.153 149.858 395.878 148.995 396.587 148.162C397.22 147.418 397.769 146.606 398.222 145.741C398.623 144.996 398.769 144.14 398.638 143.305C398.522 142.569 398.23 141.872 397.787 141.273C397.344 140.675 396.763 140.192 396.094 139.866C394.436 139.065 392.56 138.837 390.758 139.218C389.128 139.457 387.611 140.194 386.415 141.328C385.22 142.463 384.405 143.94 384.082 145.556C383.991 145.945 383.835 146.315 383.619 146.651C383.344 146.943 382.971 147.125 382.57 147.16L377.698 147.946C377.355 148.012 377.001 147.94 376.711 147.746C376.562 147.644 376.437 147.511 376.344 147.357C376.251 147.202 376.192 147.03 376.171 146.851C376.026 145.321 376.265 143.779 376.865 142.364C377.475 140.718 378.373 139.193 379.517 137.861C380.772 136.403 382.25 135.154 383.897 134.161C385.673 133.083 387.642 132.36 389.695 132.033ZM397.651 165.725C397.864 165.692 398.08 165.7 398.289 165.75C398.499 165.801 398.696 165.892 398.869 166.018C399.051 166.138 399.206 166.294 399.322 166.478C399.439 166.661 399.516 166.867 399.548 167.082L400.411 172.371C400.478 172.8 400.373 173.238 400.119 173.591C399.865 173.943 399.483 174.181 399.054 174.253L393.889 175.101C393.46 175.167 393.022 175.062 392.671 174.808C392.492 174.687 392.34 174.529 392.226 174.346C392.112 174.163 392.037 173.958 392.008 173.744L391.144 168.455C391.105 168.242 391.111 168.024 391.161 167.814C391.212 167.605 391.306 167.408 391.437 167.236C391.558 167.058 391.715 166.906 391.899 166.792C392.082 166.678 392.287 166.603 392.501 166.573L397.651 165.725Z" fill="#084892"/>
<g opacity="0.2">
<path d="M389.695 132.033C391.551 131.735 393.441 131.698 395.307 131.925C397.091 132.137 398.823 132.658 400.427 133.467C401.954 134.259 403.299 135.362 404.374 136.705C405.341 138.019 406.022 139.521 406.373 141.115C406.723 142.709 406.736 144.358 406.41 145.957C406.116 147.186 405.643 148.365 405.007 149.457C404.393 150.519 403.681 151.521 402.879 152.449C402.092 153.374 401.337 154.253 400.643 155.101C399.963 155.891 399.359 156.743 398.839 157.645C398.35 158.436 398.103 159.353 398.129 160.282C398.116 160.716 397.994 161.14 397.775 161.516C397.663 161.688 397.516 161.836 397.343 161.947C397.17 162.059 396.976 162.133 396.772 162.163L392.146 162.903C391.93 162.943 391.708 162.938 391.494 162.891C391.279 162.843 391.076 162.753 390.897 162.626C390.715 162.511 390.563 162.355 390.453 162.17C390.343 161.985 390.279 161.777 390.265 161.562C390.071 160.127 390.176 158.667 390.573 157.275C390.936 156.042 391.454 154.861 392.115 153.759C392.764 152.702 393.507 151.706 394.336 150.783C395.153 149.858 395.878 148.995 396.587 148.162C397.22 147.418 397.769 146.606 398.222 145.741C398.623 144.996 398.769 144.14 398.638 143.305C398.522 142.569 398.23 141.872 397.787 141.273C397.344 140.675 396.763 140.192 396.094 139.866C394.436 139.065 392.56 138.837 390.758 139.218C389.128 139.457 387.611 140.194 386.415 141.328C385.22 142.463 384.405 143.94 384.082 145.556C383.991 145.945 383.835 146.315 383.619 146.651C383.344 146.943 382.971 147.125 382.57 147.16L377.698 147.946C377.355 148.012 377.001 147.94 376.711 147.746C376.562 147.644 376.437 147.511 376.344 147.357C376.251 147.202 376.192 147.03 376.171 146.851C376.026 145.321 376.265 143.779 376.865 142.364C377.475 140.718 378.373 139.193 379.517 137.861C380.772 136.403 382.25 135.154 383.897 134.161C385.673 133.083 387.642 132.36 389.695 132.033ZM397.651 165.725C397.864 165.692 398.08 165.7 398.289 165.75C398.499 165.801 398.696 165.892 398.869 166.018C399.051 166.138 399.206 166.294 399.322 166.478C399.439 166.661 399.516 166.867 399.548 167.082L400.411 172.371C400.478 172.8 400.373 173.238 400.119 173.591C399.865 173.943 399.483 174.181 399.054 174.253L393.889 175.101C393.46 175.167 393.022 175.062 392.671 174.808C392.492 174.687 392.34 174.529 392.226 174.346C392.112 174.163 392.037 173.958 392.008 173.744L391.144 168.455C391.105 168.242 391.111 168.024 391.161 167.814C391.212 167.605 391.306 167.408 391.437 167.236C391.558 167.058 391.715 166.906 391.899 166.792C392.082 166.678 392.287 166.603 392.501 166.573L397.651 165.725Z" fill="black"/>
</g>
<path d="M433.302 140.344C433.512 140.49 433.69 140.678 433.826 140.895C433.961 141.113 434.05 141.356 434.088 141.609C434.138 141.86 434.134 142.118 434.078 142.367C434.023 142.617 433.916 142.852 433.765 143.058L430.095 148.224C429.949 148.434 429.761 148.612 429.544 148.748C429.326 148.883 429.083 148.972 428.83 149.01C428.579 149.059 428.321 149.056 428.072 149C427.822 148.945 427.587 148.838 427.381 148.687L422.323 145.094C422.112 144.949 421.935 144.762 421.802 144.544C421.669 144.326 421.584 144.083 421.552 143.829C421.503 143.578 421.506 143.32 421.562 143.071C421.618 142.821 421.725 142.586 421.876 142.38L425.592 137.214C425.893 136.795 426.346 136.512 426.854 136.425C427.362 136.339 427.884 136.456 428.306 136.751L433.302 140.344ZM454.643 105.356C456.487 106.649 458.13 108.208 459.516 109.982C460.868 111.633 461.913 113.513 462.6 115.534C463.24 117.469 463.456 119.521 463.232 121.547C462.971 123.709 462.153 125.765 460.858 127.515C459.895 128.93 458.658 130.136 457.218 131.061C455.952 131.856 454.575 132.458 453.132 132.85C451.727 133.218 450.293 133.465 448.845 133.59L444.744 133.96C443.514 134.059 442.296 134.27 441.105 134.593C440.006 134.842 439.001 135.398 438.206 136.196C437.847 136.561 437.392 136.818 436.895 136.936C436.658 137.004 436.409 137.015 436.167 136.966C435.926 136.918 435.699 136.813 435.507 136.659L431.035 133.482C430.608 133.177 430.315 132.719 430.218 132.203C430.16 131.952 430.162 131.692 430.224 131.443C430.286 131.194 430.405 130.963 430.573 130.768C431.617 129.413 432.923 128.28 434.412 127.438C435.753 126.705 437.184 126.151 438.668 125.788C440.101 125.44 441.561 125.218 443.032 125.125C444.482 125.032 445.838 124.924 447.103 124.801C448.26 124.699 449.403 124.471 450.511 124.122C451.48 123.8 452.315 123.165 452.885 122.318C453.401 121.603 453.736 120.774 453.862 119.901C453.988 119.029 453.902 118.139 453.61 117.307C452.881 115.252 451.486 113.499 449.647 112.326C446.317 109.951 442.683 109.874 438.745 112.095C438.349 112.347 437.91 112.525 437.45 112.619C437.21 112.636 436.97 112.605 436.742 112.528C436.515 112.451 436.304 112.33 436.124 112.172L431.375 108.795C431.203 108.681 431.055 108.533 430.941 108.361C430.827 108.189 430.749 107.996 430.711 107.793C430.675 107.583 430.682 107.368 430.732 107.161C430.782 106.954 430.875 106.759 431.004 106.59C432.125 105.154 433.581 104.016 435.245 103.275C437.135 102.418 439.159 101.897 441.228 101.733C443.504 101.542 445.795 101.725 448.013 102.272C450.406 102.849 452.66 103.897 454.643 105.356Z" fill="#084892"/>
<g opacity="0.6">
<path d="M433.302 140.344C433.512 140.49 433.69 140.678 433.826 140.895C433.961 141.113 434.05 141.356 434.088 141.609C434.138 141.86 434.134 142.118 434.078 142.367C434.023 142.617 433.916 142.852 433.765 143.058L430.095 148.224C429.949 148.434 429.761 148.612 429.544 148.748C429.326 148.883 429.083 148.972 428.83 149.01C428.579 149.059 428.321 149.056 428.072 149C427.822 148.945 427.587 148.838 427.381 148.687L422.323 145.094C422.112 144.949 421.935 144.762 421.802 144.544C421.669 144.326 421.584 144.083 421.552 143.829C421.503 143.578 421.506 143.32 421.562 143.071C421.618 142.821 421.725 142.586 421.876 142.38L425.592 137.214C425.893 136.795 426.346 136.512 426.854 136.425C427.362 136.339 427.884 136.456 428.306 136.751L433.302 140.344ZM454.643 105.356C456.487 106.649 458.13 108.208 459.516 109.982C460.868 111.633 461.913 113.513 462.6 115.534C463.24 117.469 463.456 119.521 463.232 121.547C462.971 123.709 462.153 125.765 460.858 127.515C459.895 128.93 458.658 130.136 457.218 131.061C455.952 131.856 454.575 132.458 453.132 132.85C451.727 133.218 450.293 133.465 448.845 133.59L444.744 133.96C443.514 134.059 442.296 134.27 441.105 134.593C440.006 134.842 439.001 135.398 438.206 136.196C437.847 136.561 437.392 136.818 436.895 136.936C436.658 137.004 436.409 137.015 436.167 136.966C435.926 136.918 435.699 136.813 435.507 136.659L431.035 133.482C430.608 133.177 430.315 132.719 430.218 132.203C430.16 131.952 430.162 131.692 430.224 131.443C430.286 131.194 430.405 130.963 430.573 130.768C431.617 129.413 432.923 128.28 434.412 127.438C435.753 126.705 437.184 126.151 438.668 125.788C440.101 125.44 441.561 125.218 443.032 125.125C444.482 125.032 445.838 124.924 447.103 124.801C448.26 124.699 449.403 124.471 450.511 124.122C451.48 123.8 452.315 123.165 452.885 122.318C453.401 121.603 453.736 120.774 453.862 119.901C453.988 119.029 453.902 118.139 453.61 117.307C452.881 115.252 451.486 113.499 449.647 112.326C446.317 109.951 442.683 109.874 438.745 112.095C438.349 112.347 437.91 112.525 437.45 112.619C437.21 112.636 436.97 112.605 436.742 112.528C436.515 112.451 436.304 112.33 436.124 112.172L431.375 108.795C431.203 108.681 431.055 108.533 430.941 108.361C430.827 108.189 430.749 107.996 430.711 107.793C430.675 107.583 430.682 107.368 430.732 107.161C430.782 106.954 430.875 106.759 431.004 106.59C432.125 105.154 433.581 104.016 435.245 103.275C437.135 102.418 439.159 101.897 441.228 101.733C443.504 101.542 445.795 101.725 448.013 102.272C450.406 102.849 452.66 103.897 454.643 105.356Z" fill="white"/>
</g>
<path d="M318.469 276.842H263.682V144.106C263.682 132.577 268.261 121.521 276.413 113.369C284.565 105.217 295.622 100.637 307.151 100.637H312.208C323.737 100.637 334.794 105.217 342.946 113.369C351.098 121.521 355.677 132.577 355.677 144.106V239.71C355.657 249.565 351.728 259.009 344.752 265.971C337.776 272.932 328.324 276.842 318.469 276.842Z" fill="#263238"/>
<path d="M258.346 596.391C257.377 601.89 256.861 607.46 256.804 613.044C256.604 623.16 254.753 626.753 254.507 635.049C254.214 644.532 255.864 648.078 259.703 653.414C263.543 658.749 273.581 663.576 277.93 654.57C282.278 645.565 281.646 639.659 280.273 630.361C278.87 620.739 278.731 615.419 277.868 608.094C277.159 601.633 276.326 596.714 276.326 596.714L258.346 596.391Z" fill="#263238"/>
<path d="M287.058 529.205L253.751 528.604C254.244 550.84 257.776 575.527 258.377 596.452C258.5 600.384 258.284 626.968 259.765 635.002C262.001 647.153 276.403 645.503 277.174 638.24C277.945 630.977 276.249 599.937 276.295 596.73C276.156 583.345 282.463 560.755 285.717 536.73C285.855 535.574 286.904 530.362 287.058 529.205Z" fill="#FFA8A7"/>
<path d="M329.849 579.089C329.849 579.089 328.538 578.38 328.307 579.783C327.983 581.449 327.49 584.887 326.765 587.632C325.809 591.441 325.007 597.717 325.577 600.832C326.148 603.946 333.395 607.925 338.098 609.374C343.895 611.163 349.181 614.308 353.518 618.549C358.144 622.928 368.214 627.061 375.106 627.015C383.202 627.015 388.846 624.316 391.513 619.983C394.181 615.65 389.077 615.126 379.825 609.189L372.655 604.563C357.99 594.987 352.609 589.868 348.492 580.292L329.849 579.089Z" fill="#263238"/>
<path d="M348.615 573.152C348.368 566.275 353.118 507.818 353.118 507.818L321.491 522.236C328.261 562.667 329.71 572.212 329.818 578.827C329.679 579.381 329.622 579.953 329.648 580.523C329.648 588.372 338.546 592.612 345.454 597.855C351.326 602.456 357.584 606.542 364.158 610.068C369.185 612.581 379.393 612.813 380.658 609.59C372.238 603.16 359.995 593.538 353.303 586.198C350.034 582.744 348.862 580.045 348.615 573.152Z" fill="#FFA8A7"/>
<path d="M267.398 312.23C255.247 338.892 255.247 359.524 257.267 393.556C259.056 424.781 262.032 452.306 262.032 452.306C261.569 457.842 253.875 468.651 252.873 493.138C251.947 516.021 254.415 545.119 254.415 545.119C254.415 545.119 271.7 554.695 284.484 545.026C284.484 545.026 296.82 486.137 300.428 457.487C303.512 432.491 309.063 400.556 309.063 400.556L320.736 457.317C318.217 465.371 316.39 473.625 315.277 481.989C313.643 498.843 323.08 531.935 323.08 531.935C323.08 531.935 340.936 537.255 351.838 527.586C351.838 527.586 355.909 473.786 357.436 453.493C359.471 426.308 355.184 352.723 351.838 313.757L267.398 312.23Z" fill="#455A64"/>
<path d="M309.094 400.51L313.889 357.735C313.889 357.735 335.385 354.867 345.13 345.708C342.341 350.071 338.625 353.768 334.247 356.534C329.868 359.3 324.934 361.069 319.795 361.713L312.856 401.513L320.736 457.317L309.094 400.51Z" fill="#263238"/>
<path d="M396.14 301.714C397.028 293.908 397.419 286.054 397.312 278.199C396.834 271.414 395.616 270.304 386.132 258.292C373.334 242.054 362.401 227.452 350.836 212.941C342.571 202.579 333.874 200.991 325.424 201.453C319.502 201.777 331.067 230.258 336.881 247.112L370.08 282.856C371.109 284.266 371.581 286.007 371.406 287.744L369.402 318.152L379.347 331.475C379.347 331.475 394.413 318.491 396.14 301.714Z" fill="#FFA8A7"/>
<path d="M293.411 202.379C286.981 202.826 275.293 203.921 275.293 203.921C268.554 207.683 266.843 210.783 265.594 219.726C265.054 223.55 268.169 233.712 270.836 248.161L275.894 274.945L275.339 288.237C272.718 296.348 266.781 306.418 261.538 321.267C287.289 335.638 308.877 336.178 328.461 333.603C343.387 331.676 351.298 328.067 353.935 324.49C353.38 309.825 352.393 300.758 352.084 285.431C351.976 279.001 352.362 272.494 352.624 265.092C362.632 256.858 362.755 243.165 357.25 234.252C344.559 213.697 332.208 200.76 324.035 201.423L293.411 202.379Z" fill="#084892"/>
<path opacity="0.6" d="M293.411 202.379C286.981 202.826 275.293 203.921 275.293 203.921C268.554 207.683 266.843 210.783 265.594 219.726C265.054 223.55 268.169 233.712 270.836 248.161L275.894 274.945L275.339 288.237C272.718 296.348 266.781 306.418 261.538 321.267C287.289 335.638 308.877 336.178 328.461 333.603C343.387 331.676 351.298 328.067 353.935 324.49C353.38 309.825 352.393 300.758 352.084 285.431C351.976 279.001 352.362 272.494 352.624 265.092C362.632 256.858 362.755 243.165 357.25 234.252C344.559 213.697 332.208 200.76 324.035 201.423L293.411 202.379Z" fill="white"/>
<path opacity="0.1" d="M332.686 265.292C332.686 265.292 320.936 274.421 307.505 269.656C303.733 268.467 300.332 266.326 297.631 263.438C294.93 260.55 293.019 257.014 292.085 253.172C292.085 253.172 290.666 268.515 307.582 273.742C323.973 278.784 332.686 265.292 332.686 265.292Z" fill="black"/>
<path d="M348.631 160.266C348.122 182.533 340.921 188.022 337.282 189.564C333.643 191.106 326.673 190.181 319.888 189.056V202.502C319.888 202.502 327.721 210.705 327.135 216.827C326.55 222.949 314.799 223.643 306.041 217.644C301.208 214.325 296.837 210.379 293.042 205.91C292.313 205.047 291.914 203.954 291.916 202.826V171.369C291.916 171.369 288.2 175.301 281.631 170.798C280.214 169.894 279 168.704 278.067 167.305C277.135 165.906 276.503 164.328 276.213 162.672C275.923 161.016 275.981 159.318 276.382 157.685C276.784 156.052 277.521 154.521 278.547 153.189C281.415 149.812 288.693 149.58 292.178 154.731C294.152 158.57 294.414 162.441 296.619 160.899C302.479 156.674 299.333 147.021 306.411 142.395C308.734 141.182 311.146 140.151 313.628 139.311C326.257 134.947 337.205 131.277 339.842 122.642C344.807 125.479 349.248 134.006 348.631 160.266Z" fill="#FFA8A7"/>
<path d="M323.727 180.158C325.345 180.158 326.656 178.847 326.656 177.229C326.656 175.611 325.345 174.299 323.727 174.299C322.109 174.299 320.797 175.611 320.797 177.229C320.797 178.847 322.109 180.158 323.727 180.158Z" fill="#B16668"/>
<path d="M321.784 156.89C321.783 157.493 321.606 158.083 321.273 158.586C320.941 159.089 320.468 159.484 319.913 159.721C319.359 159.958 318.747 160.028 318.153 159.921C317.559 159.814 317.01 159.535 316.573 159.119C316.136 158.703 315.831 158.168 315.695 157.58C315.56 156.993 315.599 156.378 315.809 155.812C316.019 155.247 316.39 154.755 316.877 154.399C317.363 154.042 317.944 153.836 318.546 153.806C318.964 153.785 319.381 153.849 319.774 153.995C320.166 154.14 320.524 154.364 320.827 154.653C321.13 154.941 321.371 155.288 321.536 155.673C321.7 156.057 321.785 156.471 321.784 156.89Z" fill="#263238"/>
<path d="M345.145 157.198C345.177 157.575 345.133 157.955 345.016 158.315C344.9 158.675 344.712 159.009 344.466 159.296C344.219 159.583 343.917 159.818 343.579 159.987C343.24 160.156 342.871 160.257 342.493 160.282C342.112 160.317 341.728 160.271 341.366 160.146C341.004 160.022 340.673 159.821 340.394 159.559C340.116 159.296 339.896 158.978 339.75 158.624C339.604 158.27 339.535 157.889 339.548 157.506C339.508 157.126 339.546 156.742 339.66 156.377C339.774 156.013 339.962 155.675 340.211 155.385C340.46 155.095 340.765 154.859 341.109 154.692C341.452 154.524 341.826 154.429 342.208 154.411C342.59 154.393 342.971 154.453 343.329 154.588C343.686 154.723 344.012 154.929 344.287 155.194C344.563 155.46 344.781 155.778 344.928 156.131C345.076 156.483 345.15 156.862 345.145 157.244V157.198Z" fill="#263238"/>
<path d="M317.822 164.816C315.162 164.816 312.611 163.76 310.729 161.881C308.847 160.002 307.787 157.452 307.783 154.793C307.783 147.977 314.815 147.977 317.822 147.977C320.829 147.977 327.845 147.977 327.845 154.793C327.841 157.45 326.783 159.997 324.904 161.876C323.026 163.754 320.479 164.812 317.822 164.816ZM317.822 149.55C311.654 149.55 309.371 151.092 309.371 154.793C309.371 157.042 310.265 159.199 311.855 160.79C313.446 162.38 315.603 163.274 317.852 163.274C320.102 163.274 322.259 162.38 323.849 160.79C325.44 159.199 326.333 157.042 326.333 154.793C326.272 151.015 323.897 149.55 317.822 149.55Z" fill="#455A64"/>
<path d="M343.28 164.816C340.62 164.816 338.069 163.76 336.187 161.881C334.305 160.002 333.245 157.452 333.241 154.793C333.241 147.977 340.273 147.977 343.28 147.977C346.287 147.977 353.303 147.977 353.303 154.793C353.299 157.45 352.241 159.997 350.362 161.876C348.484 163.754 345.937 164.812 343.28 164.816ZM343.28 149.55C337.204 149.55 334.829 151.092 334.829 154.793C334.829 157.042 335.723 159.199 337.314 160.79C338.904 162.38 341.061 163.274 343.31 163.274C345.56 163.274 347.717 162.38 349.307 160.79C350.898 159.199 351.791 157.042 351.791 154.793C351.73 151.015 349.355 149.55 343.28 149.55Z" fill="#455A64"/>
<path d="M329.401 151.554L329.895 170.29L339.748 167.236L329.401 151.554Z" fill="#F28F8F"/>
<path d="M319.872 189.102C312.717 188.161 297.991 183.936 295.693 178.107C296.618 181.053 298.42 183.646 300.859 185.54C305.254 189.318 319.872 193.558 319.872 193.558V189.102Z" fill="#F28F8F"/>
<path d="M320.227 142.456L313.689 146.45C313.173 145.553 313.024 144.491 313.271 143.486C313.518 142.481 314.142 141.61 315.015 141.053C315.446 140.791 315.926 140.62 316.425 140.549C316.925 140.478 317.434 140.509 317.921 140.64C318.408 140.771 318.864 141 319.26 141.312C319.656 141.624 319.985 142.014 320.227 142.456Z" fill="#263238"/>
<path d="M346.826 146.898L339.548 144.353C339.689 143.871 339.927 143.423 340.247 143.036C340.568 142.649 340.964 142.331 341.412 142.103C341.86 141.875 342.349 141.741 342.851 141.709C343.352 141.677 343.855 141.748 344.328 141.917C345.304 142.268 346.108 142.981 346.573 143.908C347.038 144.835 347.129 145.905 346.826 146.898Z" fill="#263238"/>
<path d="M327.058 155.594C326.953 155.594 326.85 155.573 326.754 155.533C326.657 155.492 326.57 155.433 326.496 155.358C326.423 155.284 326.366 155.195 326.327 155.098C326.288 155.001 326.27 154.897 326.272 154.792C326.272 153.512 328.801 152.68 331.083 152.68C333.365 152.68 334.83 153.512 334.83 154.792C334.782 154.96 334.681 155.107 334.542 155.212C334.403 155.317 334.233 155.374 334.059 155.374C333.884 155.374 333.715 155.317 333.576 155.212C333.437 155.107 333.336 154.96 333.288 154.792C333.288 154.638 332.501 154.253 331.129 154.253C330.024 154.229 328.925 154.417 327.891 154.808C327.891 154.915 327.869 155.021 327.827 155.12C327.784 155.218 327.722 155.307 327.644 155.381C327.566 155.454 327.474 155.511 327.373 155.548C327.272 155.585 327.165 155.6 327.058 155.594Z" fill="#455A64"/>
<path d="M308.6 154.916H308.508L290.883 153.374C290.059 152.558 289.078 151.918 287.999 151.493L308.693 153.405C308.9 153.432 309.089 153.539 309.218 153.703C309.348 153.867 309.408 154.076 309.387 154.284C309.35 154.465 309.252 154.627 309.108 154.743C308.964 154.858 308.785 154.919 308.6 154.916Z" fill="#455A64"/>
<path d="M236.234 173.296C242.001 165.586 245.933 159.773 251.191 153.25C254.183 149.503 256.095 146.82 258.901 142.981C260.875 140.329 261.985 138.093 264.237 137.275C266.669 136.279 268.861 134.775 270.667 132.865C271.777 131.637 272.807 130.339 273.751 128.979C277.056 124.531 280.982 120.579 285.408 117.245C290.034 113.76 295.2 111.077 299.965 107.761C302.802 105.772 305.84 102.472 302.386 99.3884C301.326 98.4962 300.059 97.8862 298.701 97.6151C290.297 95.7955 282.988 98.6791 274.769 100.776C271.199 101.667 267.707 102.848 264.329 104.307C262.668 104.964 261.11 105.858 259.703 106.96C257.737 108.942 256.125 111.248 254.939 113.775C251.346 120.19 243.636 125.926 238.239 130.999C231.932 136.936 226.288 142.379 219.087 148.917C212.611 154.823 206.273 160.251 200.336 166.697C195.417 172.017 197.252 176.18 197.9 177.629C201.909 185.864 206.396 188.824 211.778 193.928C221.03 202.764 253.026 228.192 263.62 236.596C265.896 238.383 267.684 240.717 268.817 243.38L270.852 248.083C282.941 250.304 291.006 232.155 280.998 210.304C279.341 206.771 276.809 203.719 273.643 201.438C260.999 192.232 236.234 173.296 236.234 173.296Z" fill="#FFA8A7"/>
<path d="M236.234 173.296C232.386 178.03 227.259 181.557 221.462 183.458C221.462 183.458 229.172 185.432 239.735 175.949L236.234 173.296Z" fill="#F28F8F"/>
<path d="M392.994 285.631L391.02 283.935C390.725 283.74 390.389 283.618 390.038 283.578C389.687 283.538 389.331 283.581 389 283.703L367.582 289.532C366.503 289.892 365.514 290.481 364.684 291.258C363.854 292.035 363.201 292.982 362.771 294.035L347.351 338.491C347.165 338.853 347.092 339.263 347.142 339.667C347.191 340.071 347.361 340.451 347.628 340.757L349.664 342.515C349.96 342.72 350.301 342.849 350.659 342.892C351.016 342.935 351.378 342.89 351.714 342.762L373.164 336.933C374.243 336.574 375.231 335.985 376.061 335.208C376.892 334.431 377.544 333.483 377.975 332.431C381.059 323.688 390.311 296.718 393.395 287.975C393.765 286.88 393.58 286.047 392.994 285.631Z" fill="#455A64"/>
<path d="M349.37 340.203L364.79 295.747C365.219 294.695 365.871 293.748 366.702 292.974C367.533 292.199 368.522 291.614 369.602 291.259L391.004 285.431C392.994 284.891 394.088 286.032 393.379 287.975C390.295 296.718 381.043 323.688 377.959 332.431C377.529 333.484 376.876 334.431 376.046 335.208C375.215 335.985 374.227 336.574 373.148 336.934L351.745 342.824C349.771 343.287 348.707 342.146 349.37 340.203Z" fill="#084892"/>
<path d="M367.273 292.493C366.16 293.336 365.296 294.466 364.775 295.762L349.355 340.203C349.178 340.556 349.105 340.951 349.143 341.344C349.181 341.737 349.33 342.111 349.571 342.423L347.659 340.789C347.385 340.486 347.21 340.106 347.158 339.701C347.105 339.296 347.178 338.884 347.366 338.522L362.786 294.066C363.274 292.857 364.065 291.795 365.083 290.982L367.273 292.493Z" fill="#37474F"/>
<path d="M387.119 305.893C385.577 310.411 380.226 313.434 371.375 315.531C362.524 317.628 357.636 327.019 359.039 329.871C360.442 332.724 374.752 335.392 380.473 334.574C386.193 333.757 391.93 325.492 393.672 322.932C395.415 320.373 397.419 302.516 395.584 300.064C393.749 297.613 389.879 297.998 389.879 297.998L387.119 305.893Z" fill="#F28F8F"/>
</svg>
